<?xml version="1.0" encoding="iso-8859-1"?>
<!-- Uploaded to: SVG Repo, www.svgrepo.com, Generator: SVG Repo Mixer Tools -->
<!DOCTYPE svg PUBLIC "-//W3C//DTD SVG 1.1//EN" "http://www.w3.org/Graphics/SVG/1.1/DTD/svg11.dtd">
<svg fill="#000000" version="1.1" id="Capa_1" xmlns="http://www.w3.org/2000/svg" xmlns:xlink="http://www.w3.org/1999/xlink" 
	 width="800px" height="800px" viewBox="0 0 471.023 471.023"
	 xml:space="preserve">
<g>
	<g>
		<path d="M297.662,336.925c-5.374-7.689-9.313-20.27-1.018-69.364c14.197-14.062,25.936-27.078,28.656-30.128l0.733-0.829
			l8.252-45.14c1.378-8.133,2.496-15.962,3.386-23.544c2.192-2.268,4.156-4.741,6.012-7.474c3.313-4.883,0.107-9.546-4.265-10.999
			c0.678-9.379,0.954-18.306,0.786-26.706c11.328-22.439,13.316-50.367,1.326-71.971c-4.869-8.764-15.341-6.54-19.805-0.222
			c-1.471-2.158-3.006-4.248-4.645-6.188c-3.206-3.799-6.656-6.861-10.183-9.59c-0.028-0.537-0.028-1.078-0.061-1.611
			c-0.653-11.012-13.341-13.998-19.825-8.926c-8.8-2.849-17.404-3.823-24.609-3.823c-5.182,0-9.798,0.449-13.493,0.99
			c-1.519-0.465-3.125-0.637-4.721-0.541c-2.348-0.14-4.732,0.307-6.792,1.381c-4.046-0.824-10.532-1.83-18.316-1.83
			c-6.079,0-13.136,0.661-20.47,2.569c-6.025-2.771-14.833-0.387-17.15,7.133c-5.975,3.488-11.802,8.023-17.053,14.249
			c-0.728,0.859-1.381,1.809-2.07,2.711c-5.121-3.274-12.351-3.14-16.149,3.707c-9.662,17.402-10.27,38.922-4.216,58.364
			c-0.886,11.143-0.942,23.279-0.165,36.404c-3.775,1.781-6.502,6.185-4.001,10.974c1.575,3.023,3.499,5.841,5.665,8.463
			c0.95,8.494,2.192,17.318,3.745,26.525l8.246,45.094l0.735,0.829c2.719,3.042,14.453,16.066,28.653,30.128
			c7.057,41.758,5.26,57.114,1.116,65.63C121.8,346.21,16.571,377.894,0,450.612h235.511h235.513
			C444.069,384.045,358.006,351.877,297.662,336.925z M188.275,259.895c-1.311-1.303-2.607-2.612-3.896-3.927
			c-7.867-7.979-15.356-15.962-21.596-22.943l-7.843-42.879c-0.982-5.803-1.797-11.399-2.535-16.903
			c2.921,1.353,6.346,1.1,8.84-1.397c2.871-2.875,3.22-8.283,0-11.101c-4.06-3.556-7.388-7.355-9.895-12.15
			c-0.451-0.875-1.05-1.46-1.647-2.028c-0.473-7.283-0.683-14.248-0.637-20.889c4.635,8.354,10.554,15.848,17.603,21.792
			c11.534,9.718,28.276-6.853,16.651-16.651c-18.15-15.298-28.99-46.198-16.801-68.158c1.863-3.342,1.956-6.601,0.944-9.388
			c0.958-1.318,1.907-2.629,2.943-3.849c3.194-3.775,6.65-6.796,10.197-9.387c-1.192,30.773,2.096,62.197,17.586,89.352
			c7.52,13.19,27.874,1.326,20.332-11.882c-14.593-25.588-15.802-55.589-14.092-84.338c0.07-1.234-0.06-2.331-0.291-3.368
			c5.332-1.082,10.441-1.539,14.941-1.539c5.005,0,9.388,0.465,12.848,0.998c-0.21,0.912-0.344,1.877-0.344,2.927
			c0,26.886,0.149,53.77,0.825,80.647c-0.07,2.881-0.07,5.761-0.158,8.652c-0.234,7.81,5.879,11.563,11.938,11.333
			c6.056,0.23,12.159-3.522,11.927-11.333c-0.093-2.884-0.093-5.763-0.152-8.652c0.661-26.878,0.813-53.762,0.813-80.647
			c0-1.356-0.245-2.553-0.589-3.671c1.951-0.15,4.007-0.254,6.207-0.254c6.163,0,13.469,0.801,20.947,3.078
			c-0.049,0.595-0.108,1.178-0.072,1.83c1.711,28.749,0.509,58.75-14.09,84.338c-7.534,13.208,12.812,25.072,20.333,11.882
			c14.563-25.529,18.398-54.842,17.813-83.823c1.258,1.246,2.549,2.44,3.751,3.871c6.415,7.598,11.353,17.128,14.879,28.465
			c2.349,19.35-7.337,40.932-21.571,52.926c-11.63,9.796,5.113,26.375,16.65,16.651c4.164-3.518,7.911-7.616,11.269-12.074
			c-0.136,5.025-0.429,10.231-0.841,15.589c-0.485,0.441-0.938,0.928-1.343,1.527c-1.779,2.621-3.719,5.155-6.34,6.991
			c-3.494,2.46-5.121,6.814-2.821,10.74c1.539,2.631,4.921,4.286,7.987,3.857c-0.706,5.214-1.479,10.503-2.405,15.984l-7.85,42.925
			c-6.252,6.969-13.742,14.964-21.604,22.942c-1.29,1.314-2.577,2.625-3.896,3.928c-1.318,1.318-2.652,2.62-3.979,3.923
			c-19.74,19.344-40.118,36.632-48.489,36.632c-8.359,0-28.741-17.288-48.486-36.632
			C190.928,262.516,189.594,261.213,188.275,259.895z M240.748,412.017c-39.134,0-70.983-18.046-70.983-40.23
			c0-7.186,3.565-14.314,10.307-20.622l0.928-0.87c1.633-1.438,3.46-2.841,5.432-4.176l1.176-1.198
			c2.817-3.546,5.676-7.146,7.574-13.513c2.787-9.354,3.488-24.771-0.948-54.737c17.418,16.406,36.331,31.646,46.506,31.646
			c10.171,0,29.086-15.24,46.502-31.646c-4.937,33.361-3.494,48.686,0.169,57.827c1.871,4.668,4.323,7.742,6.765,10.815l0.873,0.822
			c1.992,1.346,3.84,2.772,5.482,4.231l0.882,0.81c6.736,6.312,10.303,13.44,10.303,20.626
			C311.724,393.971,279.885,412.017,240.748,412.017z"/>
	</g>
</g>
</svg>