<?xml version="1.0" ?>
<!-- Uploaded to: SVG Repo, www.svgrepo.com, Generator: SVG Repo Mixer Tools -->
<svg fill="#000000" width="800px" height="800px" viewBox="0 0 100 100" version="1.1" xml:space="preserve" xmlns="http://www.w3.org/2000/svg" xmlns:xlink="http://www.w3.org/1999/xlink">
<style type="text/css">
	.st0{display:none;}
	.st1{display:inline;fill:none;}
</style>
<g class="st0" id="bounding_squares">
<rect class="st1" height="100" id="XMLID_11_" width="100"/>
</g>
<g id="icons">
<path d="M85.7890625,70.4609375l-15.625-15.625l-2.9049072-2.9049072C69.4067383,49.8607178,70.75,46.9616699,70.75,43.75   c0-6.2724609-5.1025391-11.375-11.375-11.375S48,37.4775391,48,43.75s5.1025391,11.375,11.375,11.375   c1.6179199,0,3.1550293-0.3447266,4.5498047-0.9562378c0.0805664,0.1309814,0.1726074,0.2567749,0.2861328,0.3703003   l1.8594971,1.8594971L55.2890625,69.875H37.5c-1.1044922,0-2,0.8955078-2,2s0.8955078,2,2,2h18.75   c0.6074219,0,1.1826172-0.2763672,1.5615234-0.7509766L68.8439941,59.333313   c7.7097168,9.2615356,7.5128174,22.8925171-0.5563965,31.9492188L44.6445313,79.4609375   c-0.5625-0.28125-1.2265625-0.28125-1.7890625,0L18.2783203,91.75H12.5c-1.1044922,0-2,0.8955078-2,2s0.8955078,2,2,2h6.25   c0.3105469,0,0.6171875-0.0722656,0.8945313-0.2109375L43.75,83.4863281l24.1054688,12.0527344   C68.1425781,95.6826172,68.4482422,95.75,68.7480469,95.75l0.0009766-0.0002441L68.75,95.75   c0.5117188,0,1.0234375-0.1953125,1.4140625-0.5859375c7.3647461-7.3641968,9.8464355-17.7867432,7.4549561-27.2169189   L82.375,72.703125V93.75c0,1.1044922,0.8955078,2,2,2s2-0.8955078,2-2V71.875   C86.375,71.3447266,86.1640625,70.8359375,85.7890625,70.4609375z M52,43.75c0-4.0664063,3.3085938-7.375,7.375-7.375   s7.375,3.3085938,7.375,7.375s-3.3085938,7.375-7.375,7.375S52,47.8164063,52,43.75z"/>
</g>
</svg>